Coordinates
version=1
nRows=34
nColumns=38
inDegrees=no

Units are S.I. units (second, meters, Newtons, ...)
If the header above contains a line with 'inDegrees', this indicates whether rotational values are in degrees (yes) or radians (no).

endheader
time	pelvis_tilt	pelvis_list	pelvis_rotation	pelvis_tx	pelvis_ty	pelvis_tz	hip_flexion_r	hip_adduction_r	hip_rotation_r	knee_angle_r	ankle_angle_r	subtalar_angle_r	mtp_angle_r	hip_flexion_l	hip_adduction_l	hip_rotation_l	knee_angle_l	ankle_angle_l	subtalar_angle_l	mtp_angle_l	lumbar_extension	lumbar_bending	lumbar_rotation	arm_flex_r	arm_add_r	arm_rot_r	elbow_flex_r	pro_sup_r	wrist_flex_r	wrist_dev_r	arm_flex_l	arm_add_l	arm_rot_l	elbow_flex_l	pro_sup_l	wrist_flex_l	wrist_dev_l
10	-2.75	1.45909	-1.88545	0.6975	-0.2207	0.800735	0.660139	-0.234662	0.0108658	1.33377	0.390085	0	0	0.596547	-0.244006	-0.127728	1.26194	0.373005	0	0	-0.861184	-0.0359727	0.00175074	0.557539	-0.276358	0.792875	0.297649	0.768512	0	0	0.543118	-0.247787	0.403341	0.49501	0.939807	0	0
10.01	-3.00548	1.47353	-1.65001	0.70212	-0.220609	0.801425	0.66451	-0.188521	0.00180936	1.32123	0.380854	0	0	0.606733	-0.300893	-0.138789	1.26592	0.37269	0	0	-0.848275	-0.0307691	0.0353035	0.559149	-0.272545	0.800661	0.291808	0.762798	0	0	0.5448	-0.242295	0.406744	0.487281	0.93978	0	0
10.02	-2.97267	1.4759	-1.67999	0.702594	-0.221472	0.804646	0.660432	-0.190426	0.000275603	1.30767	0.374105	0	0	0.601982	-0.293112	-0.138288	1.24829	0.363475	0	0	-0.848802	-0.0334679	0.0320965	0.564099	-0.26436	0.785943	0.283216	0.790578	0	0	0.554298	-0.238726	0.413697	0.478949	0.938807	0	0
10.03	-2.97163	1.47486	-1.67987	0.702243	-0.221468	0.80748	0.651548	-0.192819	-0.00425224	1.29538	0.369976	0	0	0.593684	-0.290775	-0.1408	1.23609	0.358778	0	0	-0.849446	-0.0324627	0.0306065	0.568634	-0.261377	0.798038	0.276895	0.782977	0	0	0.558796	-0.232512	0.416208	0.469441	0.937589	0	0
10.04	-2.97315	1.47512	-1.67719	0.70186	-0.221501	0.810178	0.644132	-0.194449	-0.00855407	1.28321	0.365657	0	0	0.587235	-0.288389	-0.142321	1.22431	0.354055	0	0	-0.848878	-0.0309235	0.0291484	0.573129	-0.259292	0.8112	0.271571	0.774665	0	0	0.562246	-0.226867	0.415961	0.461849	0.937047	0	0
10.05	-2.97318	1.4767	-1.6766	0.701575	-0.22155	0.812689	0.63871	-0.195209	-0.011851	1.27158	0.361319	0	0	0.582235	-0.286535	-0.144315	1.2127	0.349186	0	0	-0.846841	-0.0298988	0.0281313	0.576953	-0.257777	0.822311	0.267375	0.767156	0	0	0.564988	-0.222101	0.415023	0.455819	0.937223	0	0
10.06	-2.97438	1.47786	-1.67498	0.701378	-0.221585	0.815286	0.632365	-0.195627	-0.0152574	1.25916	0.356736	0	0	0.576201	-0.285259	-0.147086	1.20023	0.344417	0	0	-0.845202	-0.0290989	0.0272014	0.580564	-0.256456	0.83496	0.263305	0.758429	0	0	0.567945	-0.217935	0.413118	0.449093	0.937491	0	0
10.07	-2.97657	1.48003	-1.67267	0.701249	-0.221667	0.817743	0.627531	-0.195705	-0.0186426	1.24717	0.352041	0	0	0.571565	-0.284569	-0.150188	1.18814	0.33961	0	0	-0.842504	-0.0283118	0.026559	0.583256	-0.255677	0.843815	0.26119	0.751823	0	0	0.569873	-0.215384	0.41155	0.444752	0.938096	0	0
10.08	-2.9788	1.48247	-1.67075	0.701169	-0.221788	0.820133	0.623259	-0.195817	-0.0222398	1.23517	0.34722	0	0	0.567258	-0.284183	-0.153606	1.17632	0.334932	0	0	-0.839507	-0.0276735	0.0262718	0.585448	-0.255661	0.851064	0.26058	0.74627	0	0	0.571083	-0.214023	0.409301	0.442007	0.939036	0	0
10.09	-2.97465	1.48447	-1.67515	0.701022	-0.221901	0.822561	0.618631	-0.196681	-0.0255061	1.22325	0.342595	0	0	0.562246	-0.282901	-0.157196	1.16421	0.330337	0	0	-0.836875	-0.0273303	0.0256528	0.587022	-0.256302	0.856354	0.261194	0.742123	0	0	0.571626	-0.213709	0.406186	0.441019	0.940233	0	0
10.1	-2.96556	1.48588	-1.68465	0.700832	-0.22198	0.825017	0.613456	-0.19796	-0.0282796	1.21143	0.338119	0	0	0.556467	-0.280891	-0.160763	1.152	0.325448	0	0	-0.83458	-0.027325	0.0247732	0.588021	-0.257213	0.85911	0.262338	0.739547	0	0	0.571557	-0.2144	0.403259	0.441249	0.941708	0	0
10.11	-2.9625	1.48729	-1.68866	0.700755	-0.222029	0.82747	0.608066	-0.198181	-0.0308921	1.19921	0.333405	0	0	0.550529	-0.27992	-0.164583	1.13973	0.3204	0	0	-0.832072	-0.0273515	0.0247505	0.588504	-0.258132	0.859286	0.263704	0.738451	0	0	0.570979	-0.21601	0.401216	0.442864	0.944128	0	0
10.12	-2.96003	1.48928	-1.69238	0.70076	-0.222044	0.829862	0.603474	-0.197959	-0.033247	1.18705	0.328452	0	0	0.545295	-0.279499	-0.168745	1.12771	0.315392	0	0	-0.828659	-0.0278445	0.0255898	0.587471	-0.257189	0.836855	0.263156	0.77109	0	0	0.570038	-0.218401	0.401822	0.446135	0.944831	0	0
10.13	-2.95211	1.49103	-1.70104	0.70069	-0.221974	0.832258	0.598381	-0.199008	-0.0363598	1.17484	0.32403	0	0	0.539749	-0.278684	-0.173402	1.11568	0.310679	0	0	-0.824639	-0.0280695	0.0251999	0.586811	-0.258419	0.838921	0.265868	0.765152	0	0	0.567959	-0.22105	0.399793	0.449755	0.948321	0	0
10.14	-2.94705	1.49299	-1.70713	0.700649	-0.221879	0.834641	0.593337	-0.199739	-0.0398054	1.16233	0.319598	0	0	0.534102	-0.27843	-0.178543	1.10338	0.30599	0	0	-0.819888	-0.0282932	0.0253493	0.585698	-0.259369	0.837978	0.268085	0.763681	0	0	0.565583	-0.223506	0.397769	0.453351	0.951207	0	0
10.15	-2.94356	1.49568	-1.71254	0.700669	-0.22183	0.836958	0.58947	-0.199418	-0.0422701	1.14974	0.314478	0	0	0.529002	-0.278634	-0.184104	1.09101	0.301082	0	0	-0.81399	-0.0288255	0.0265434	0.584322	-0.26028	0.835488	0.269917	0.765453	0	0	0.562909	-0.22533	0.396189	0.456633	0.952486	0	0
10.16	-2.93942	1.49803	-1.71803	0.700582	-0.22162	0.839308	0.58475	-0.199511	-0.0450141	1.13718	0.309937	0	0	0.523413	-0.278148	-0.189087	1.07852	0.296362	0	0	-0.807646	-0.0288421	0.0275491	0.582075	-0.26131	0.831877	0.272084	0.769147	0	0	0.559472	-0.226653	0.39537	0.459502	0.951873	0	0
10.17	-2.93423	1.49945	-1.72395	0.700428	-0.221258	0.841738	0.57869	-0.200374	-0.048345	1.12479	0.305844	0	0	0.516619	-0.276992	-0.193635	1.06574	0.291807	0	0	-0.801753	-0.0285932	0.0278662	0.57955	-0.261754	0.82705	0.273926	0.774104	0	0	0.556202	-0.227724	0.394814	0.46185	0.951233	0	0
10.18	-2.93496	1.50043	-1.72386	0.700456	-0.220915	0.844231	0.571781	-0.200609	-0.0521849	1.11193	0.30135	0	0	0.509473	-0.276509	-0.197882	1.05299	0.286841	0	0	-0.796323	-0.0285107	0.0281991	0.577144	-0.261425	0.822897	0.275301	0.780588	0	0	0.553955	-0.228644	0.393597	0.463207	0.95205	0	0
10.19	-2.93544	1.50027	-1.72424	0.700463	-0.220478	0.846875	0.562839	-0.200997	-0.0561388	1.0979	0.297213	0	0	0.500418	-0.275711	-0.202559	1.03952	0.281773	0	0	-0.791722	-0.0287779	0.0285079	0.574804	-0.260651	0.818649	0.275814	0.786563	0	0	0.552202	-0.228847	0.391493	0.463491	0.955679	0	0
10.2	-2.93986	1.50037	-1.72068	0.700474	-0.220101	0.849505	0.554015	-0.201005	-0.0603284	1.08349	0.29283	0	0	0.49148	-0.275246	-0.207481	1.02551	0.276753	0	0	-0.786789	-0.0287101	0.0290564	0.572789	-0.259819	0.814925	0.276235	0.791411	0	0	0.550496	-0.228546	0.388344	0.463191	0.959985	0	0
10.21	-2.94456	1.50097	-1.7166	0.700464	-0.219819	0.852078	0.545952	-0.200857	-0.0645241	1.06923	0.287902	0	0	0.483265	-0.275317	-0.213339	1.01149	0.271708	0	0	-0.781483	-0.0283451	0.0293967	0.571398	-0.258735	0.812705	0.276161	0.7949	0	0	0.548821	-0.227955	0.383801	0.462926	0.964133	0	0
10.22	-2.95388	1.5002	-1.70777	0.700435	-0.219403	0.854831	0.535557	-0.200768	-0.069303	1.05425	0.283453	0	0	0.472943	-0.275288	-0.219128	0.996881	0.266913	0	0	-0.777671	-0.0277167	0.0294258	0.570602	-0.257475	0.814307	0.275547	0.795067	0	0	0.547132	-0.225539	0.369003	0.460481	0.986823	0	0
10.23	-2.96078	1.49952	-1.70101	0.700414	-0.21892	0.857512	0.525225	-0.201071	-0.074562	1.03947	0.279385	0	0	0.462997	-0.274608	-0.223905	0.982532	0.26209	0	0	-0.773471	-0.0272098	0.0293836	0.569402	-0.256094	0.816864	0.274801	0.793122	0	0	0.54585	-0.22523	0.366496	0.459483	0.988616	0	0
10.24	-2.96934	1.49892	-1.69273	0.700461	-0.218404	0.860128	0.514953	-0.201075	-0.0799005	1.02464	0.275373	0	0	0.453322	-0.27391	-0.227981	0.968546	0.257281	0	0	-0.768948	-0.0267789	0.0298096	0.567996	-0.254662	0.820031	0.273751	0.791237	0	0	0.544988	-0.224927	0.36567	0.457573	0.989584	0	0
10.25	-2.97459	1.49819	-1.68759	0.700508	-0.217875	0.862719	0.504395	-0.201205	-0.0851454	1.00954	0.271366	0	0	0.443523	-0.272919	-0.23218	0.954451	0.252271	0	0	-0.764371	-0.0265079	0.0302478	0.56656	-0.25306	0.823604	0.27202	0.789752	0	0	0.54437	-0.224782	0.36671	0.455671	0.990589	0	0
10.26	-2.98193	1.49742	-1.68008	0.700496	-0.217359	0.86533	0.493912	-0.201039	-0.0900828	0.994708	0.266907	0	0	0.433702	-0.27191	-0.236223	0.94017	0.247053	0	0	-0.759889	-0.0258327	0.0307066	0.565289	-0.251325	0.826955	0.269491	0.789007	0	0	0.54392	-0.224702	0.368599	0.453968	0.991457	0	0
10.27	-2.99126	1.49727	-1.67058	0.700499	-0.216844	0.867817	0.484011	-0.200517	-0.0950928	0.979622	0.262132	0	0	0.424474	-0.271153	-0.240472	0.92569	0.242144	0	0	-0.754734	-0.0249457	0.0311512	0.563983	-0.249511	0.829499	0.266989	0.788016	0	0	0.543413	-0.224787	0.370189	0.451869	0.991065	0	0
10.28	-3.0031	1.4971	-1.65851	0.700507	-0.216278	0.870259	0.473914	-0.199671	-0.100112	0.964441	0.2577	0	0	0.415364	-0.270446	-0.244221	0.911421	0.237357	0	0	-0.74944	-0.0238778	0.0318454	0.562024	-0.247944	0.830604	0.265285	0.786005	0	0	0.54298	-0.224942	0.37228	0.449275	0.989925	0	0
10.29	-3.01217	1.4968	-1.64905	0.700502	-0.215673	0.872695	0.463507	-0.199105	-0.105374	0.948912	0.253342	0	0	0.406228	-0.269441	-0.247773	0.897283	0.232644	0	0	-0.744077	-0.0229408	0.0323827	0.559758	-0.246443	0.830849	0.263617	0.785312	0	0	0.542297	-0.225508	0.374996	0.447506	0.989138	0	0
10.3	-3.01898	1.49637	-1.64163	0.700491	-0.214983	0.875124	0.452571	-0.199058	-0.111465	0.933061	0.249257	0	0	0.396632	-0.268354	-0.251697	0.882874	0.228185	0	0	-0.738513	-0.0220882	0.0327693	0.557016	-0.245141	0.830534	0.262241	0.785829	0	0	0.541057	-0.226453	0.378291	0.446588	0.98839	0	0
10.31	-3.02853	1.49613	-1.63152	0.700457	-0.214201	0.877483	0.442001	-0.198867	-0.117809	0.917719	0.245072	0	0	0.387216	-0.267696	-0.255947	0.86868	0.223634	0	0	-0.73234	-0.0209454	0.0334584	0.553866	-0.244432	0.830781	0.26138	0.787115	0	0	0.539508	-0.2273	0.382081	0.445471	0.98762	0	0
10.32	-3.04251	1.49586	-1.61716	0.700376	-0.213403	0.879845	0.431595	-0.197946	-0.12341	0.902746	0.240553	0	0	0.377767	-0.267329	-0.260115	0.854519	0.219401	0	0	-0.726017	-0.0194135	0.0344999	0.550717	-0.244095	0.830833	0.260576	0.78883	0	0	0.537792	-0.22787	0.385162	0.444416	0.987325	0	0
10.33	-3.05709	1.49524	-1.60215	0.700314	-0.212566	0.882275	0.42037	-0.196951	-0.12945	0.886903	0.235731	0	0	0.367808	-0.267104	-0.264612	0.840065	0.214845	0	0	-0.719946	-0.0177978	0.0355518	0.547379	-0.243984	0.830296	0.260289	0.791198	0	0	0.535978	-0.228443	0.387802	0.443745	0.987232	0	0
